<svg xmlns="http://www.w3.org/2000/svg" viewBox="0 0 180.6 42.7" style="enable-background:new 0 0 180.6 42.7" xml:space="preserve"><path d="M52 1.8h20v8H52zM13 1.8h8v26h-8zM26 1.8h8v38h-8zM0 1.8h8v38H0zM52 14.8h8v25h-8zM39 1.8h8v8h-8z"/><path style="fill:#8a8b8c" d="M39 14.8h8v25h-8z"/><g><path d="M89 1.8h3.3l1.6 6.6 1.6-6.6h3.2v8.9h-2.1V3.8l-1.8 6.9h-2L91 3.8v6.9h-2V1.8zM106 9.3c0 .5 0 1 .2 1.4h-1.8c-.1-.2-.1-.5-.1-.7-.3.5-1.3.9-2 .9-1.3 0-2.2-.7-2.2-2 0-1.6 1.3-2.2 3.4-2.5l.7-.1v-.5c0-.5-.4-.7-.9-.7-.6 0-.9.2-1 .9h-1.9c.1-1.9 1.8-2.1 2.7-2.1 1.8 0 2.9.4 3 1.9-.1 0-.1 3.5-.1 3.5zm-1.8-1.8-1.3.4c-.5.1-.9.3-.9.9 0 .5.4.8.9.8.8 0 1.3-.5 1.3-1.5v-.6zM112.2 6c-.4-.5-1.2-.7-1.8-.7-.5 0-.8.2-.8.5 0 1.1 3.9.2 3.9 2.7 0 1.8-1.6 2.4-3 2.4s-2.3-.4-3.2-1.3l1.2-1.1c.6.6 1.2.9 2.1.9.3 0 1.1-.1 1.1-.7 0-1-3.9-.2-3.9-2.6 0-1.7 1.5-2.3 2.8-2.3 1 0 2 .4 2.9 1L112.2 6zM119.1 6c-.4-.5-1.2-.7-1.8-.7-.5 0-.8.2-.8.5 0 1.1 3.9.2 3.9 2.7 0 1.8-1.5 2.4-3 2.4-1.4 0-2.3-.4-3.2-1.3l1.2-1.1c.6.6 1.2.9 2.1.9.3 0 1.1-.1 1.1-.7 0-1-3.9-.2-3.9-2.6 0-1.7 1.5-2.3 2.8-2.3 1 0 2 .4 2.9 1L119.1 6zM127.4 9.3c0 .5 0 1 .2 1.4h-1.8c-.1-.2-.1-.5-.1-.7-.3.5-1.3.9-2 .9-1.3 0-2.2-.7-2.2-2 0-1.6 1.3-2.2 3.4-2.5l.7-.1v-.5c0-.5-.4-.7-.9-.7-.6 0-.9.2-1 .9h-1.9c.1-1.9 1.8-2.1 2.7-2.1 1.8 0 2.9.4 3 1.9-.1 0-.1 3.5-.1 3.5zm-1.9-1.8-1.3.4c-.5.1-.9.3-.9.9 0 .5.4.8.9.8.8 0 1.3-.5 1.3-1.5v-.6zM133.5 6.3c-.4-.8-.9-.9-1.2-.9-1.1 0-1.5.9-1.5 2s.5 2 1.5 2c.6 0 1.1-.2 1.4-1l1.4.7c-.6 1.1-1.7 1.8-3 1.8-2 0-3.4-1.3-3.4-3.5s1.5-3.5 3.3-3.5c1.3 0 2.4.5 3 1.6l-1.5.8zM136.1 1.8h1.9v2.9c.4-.5 1.2-.8 1.8-.8 1.4 0 2.1.8 2.1 2.1v4.7H140v-4c0-1-.6-1.3-1-1.3s-1 .3-1 1.5v3.7h-1.9V1.8zM149.6 10.7h-1.9v-.6c-.5.6-1.3.8-1.9.8-1.6 0-2-.9-2-1.9V4.1h1.9v4.3c0 .6.2.9.9.9.6 0 1-.3 1-1V4.1h1.9l.1 6.6zM155.7 6c-.4-.5-1.2-.7-1.8-.7-.5 0-.8.2-.8.5C153 7 157 6 157 8.5c0 1.8-1.6 2.4-3 2.4s-2.3-.4-3.2-1.3l1.2-1.1c.6.6 1.2.9 2.1.9.3 0 1.1-.1 1.1-.7 0-1-3.9-.2-3.9-2.6 0-1.7 1.5-2.3 2.8-2.3 1 0 2 .4 2.9 1L155.7 6zM159.8 7.8c0 1.3.8 1.7 1.4 1.7.7 0 1.1-.4 1.6-1.2l1.5.8c-.7 1.2-1.7 1.8-3.2 1.8-2.1 0-3.3-1.4-3.3-3.3 0-2.3 1.2-3.7 3.3-3.7 2.4 0 3.2 1.8 3.3 3.9h-4.6zm2.6-1.2c-.1-1-.8-1.3-1.3-1.3s-1.2.4-1.3 1.3h2.6zM169 5.4h-1.2v3.3c0 .5.3.7.6.7h.6v1.5c-.2 0-.8.1-1.2.1-1.7 0-1.9-1-1.9-2V5.4h-.9V4.2h.9V2.3h1.9v1.9h1.2v1.2zM173.4 5.4h-1.2v3.3c0 .5.3.7.6.7h.6v1.5c-.2 0-.8.1-1.2.1-1.7 0-1.9-1-1.9-2V5.4h-.9V4.2h.9V2.3h1.9v1.9h1.2v1.2zM178.9 6c-.4-.5-1.2-.7-1.8-.7-.5 0-.8.2-.8.5 0 1.1 3.9.2 3.9 2.7 0 1.8-1.6 2.4-3 2.4s-2.3-.4-3.2-1.3l1.2-1.1c.6.6 1.2.9 2.1.9.3 0 1.1-.1 1.1-.7 0-1-3.9-.2-3.9-2.6 0-1.7 1.5-2.3 2.8-2.3 1 0 2 .4 2.9 1L178.9 6zM89.1 16.4h2.2v8.9h-2.2v-8.9zM93 18.6h2v.6c.5-.6 1.3-.8 1.9-.8 1.6 0 2 .9 2 1.9v4.9H97V21c0-.6-.2-1.1-.9-1.1-.8 0-1 .5-1 1.1v4.1H93v-6.5zM105 20.6c-.4-.5-1.2-.7-1.8-.7-.5 0-.8.2-.8.5 0 1.1 3.9.2 3.9 2.7 0 1.7-1.6 2.4-3 2.4s-2.3-.5-3.3-1.4l1.2-1c.6.6 1.2.9 2.1.9.3 0 1.1-.1 1.1-.7 0-1-3.9-.2-3.9-2.6 0-1.7 1.5-2.3 2.8-2.3 1 0 2 .4 2.9 1l-1.2 1.2zM110.9 19.9h-1.2v3.3c0 .5.3.7.6.7h.6v1.5c-.2 0-.8.1-1.2.1-1.7 0-1.9-1-1.9-2V20h-.9v-1.2h.9v-1.9h1.9v1.9h1.2v1.1zM112 17.9v-1.5h1.9v1.5H112zm2 .7v6.6h-2v-6.6h2zM119 19.9h-1.2v3.3c0 .5.3.7.6.7h.6v1.5c-.2 0-.8.1-1.2.1-1.7 0-1.9-1-1.9-2V20h-.9v-1.2h.9v-1.9h1.9v1.9h1.2v1.1zM126 25.2h-1.9v-.6c-.5.6-1.3.8-1.9.8-1.6 0-2-.9-2-1.9v-4.9h1.9V23c0 .6.2.9.9.9.6 0 1-.3 1-1v-4.2h1.9l.1 6.5zM131.1 19.9h-1.2v3.3c0 .5.3.7.6.7h.6v1.5c-.2 0-.8.1-1.2.1-1.7 0-1.9-1-1.9-2V20h-1v-1.2h.9v-1.9h1.9v1.9h1.2l.1 1.1zM133.6 22.3c0 1.3.8 1.7 1.4 1.7.7 0 1.1-.4 1.6-1.2l1.5.8c-.7 1.2-1.7 1.8-3.2 1.8-2.1 0-3.3-1.4-3.3-3.3 0-2.3 1.2-3.7 3.3-3.7 2.4 0 3.2 1.9 3.3 3.9h-4.6zm2.7-1.2c-.1-1-.8-1.3-1.3-1.3s-1.2.4-1.3 1.3h2.6zM149.7 21.9c0 2.2-1.5 3.5-3.5 3.5s-3.5-1.3-3.5-3.5 1.5-3.5 3.5-3.5 3.5 1.3 3.5 3.5zm-5.2 0c0 1.1.5 2 1.6 2s1.6-.9 1.6-2.1c0-1.1-.5-1.9-1.6-1.9s-1.6.9-1.6 2zM151.2 19.9h-1v-1.2h1v-.6c0-.8.2-1.8 1.9-1.8.4 0 1 .1 1.3.1v1.4h-.6c-.3 0-.7.1-.7.5v.4h1.2v1.2h-1.2v5.3h-1.9v-5.3zM86.8 30.9h6.9v1.7h-2.3v7.2h-2.2v-7.2h-2.3v-1.7zM95.2 36.9c0 1.3.8 1.7 1.4 1.7.7 0 1.1-.4 1.6-1.2l1.5.8c-.6 1.2-1.7 1.8-3.2 1.8-2.1 0-3.3-1.4-3.3-3.3 0-2.3 1.2-3.7 3.3-3.7 2.4 0 3.2 1.8 3.3 3.9h-4.6zm2.6-1.2c-.1-1-.8-1.3-1.3-1.3s-1.2.4-1.3 1.3h2.6zM105.5 35.4c-.3-.8-.9-.9-1.2-.9-1.1 0-1.5.9-1.5 2s.5 2 1.5 2c.6 0 1.1-.2 1.4-1l1.4.7c-.6 1.1-1.7 1.8-3 1.8-2 0-3.4-1.3-3.4-3.5s1.5-3.5 3.3-3.5c1.3 0 2.3.5 3 1.6l-1.5.8zM108.1 30.9h1.9v2.9c.4-.5 1.2-.8 1.8-.8 1.4 0 2.1.8 2.1 2.1v4.7H112v-4c0-1-.6-1.3-1-1.3s-1 .3-1 1.5v3.7h-1.9v-8.8zM115.7 33.2h1.9v.6c.5-.6 1.3-.8 1.9-.8 1.6 0 2 .9 2 1.9v4.9h-1.9v-4.2c0-.7-.2-1.1-.9-1.1-.8 0-1 .5-1 1.1v4.1h-1.9l-.1-6.5zM130 36.5c0 2.2-1.5 3.5-3.5 3.5-2.1 0-3.5-1.3-3.5-3.5s1.5-3.5 3.5-3.5 3.5 1.2 3.5 3.5zm-5.1 0c0 1.1.5 2 1.6 2s1.6-.9 1.6-2.1c0-1.1-.5-1.9-1.6-1.9-1.2 0-1.6.8-1.6 2zM131.3 39.8v-8.9h1.9v8.9h-1.9zM141.6 36.5c0 2.2-1.5 3.5-3.5 3.5s-3.5-1.3-3.5-3.5 1.5-3.5 3.5-3.5 3.5 1.2 3.5 3.5zm-5.2 0c0 1.1.5 2 1.6 2s1.6-.9 1.6-2.1c0-1.1-.5-1.9-1.6-1.9s-1.6.8-1.6 2zM148.7 33.2v6.7c0 2.1-2.2 2.2-3.2 2.2-2 0-3-.7-3.1-2.3h2c0 .7.4 1 1.1 1 .7 0 1.2-.2 1.2-1.1v-.8c-.4.4-1.2.5-1.8.5-1.9 0-2.6-1.5-2.6-3.2 0-1.6.9-3.2 2.6-3.2.7 0 1.4.2 1.9.7v-.5h1.9zm-3.2 1.2c-.6 0-1.2.4-1.2 1.8 0 .8.2 1.8 1.2 1.8 1.2 0 1.3-1.1 1.3-1.8 0-1.4-.7-1.8-1.3-1.8zM150.1 40.5h.7c.6 0 .9-.1.9-.5 0-.1 0-.2-.2-.7l-1.9-6.1h2.1l1.1 5.1 1.1-5.1h2.1l-2.3 7.1c-.3 1-.8 1.8-1.9 1.8h-1.5l-.2-1.6z"/></g></svg>
