<svg xmlns="http://www.w3.org/2000/svg" width="86.174" height="41" viewBox="0 0 86.174 41">
  <g id="Logo_Monogram_3_Black" data-name="Logo / Monogram 3 / Black" transform="translate(0.5 0.5)">
    <path id="Union_5" data-name="Union 5" d="M45.172,40V26.684l16.843-4.307c2.017-.5,6.379-1.568,9.788-2.294v-.112c-3.41-.673-7.771-1.678-9.788-2.181L45.172,13.425V0h40V9.063H65.036c-1.289,0-4.755-.057-8-.169v.112c3.3.726,6.264,1.51,7.445,1.79l20.695,5.259v8.112l-20.64,5.2c-1.181.278-4.2,1.062-7.5,1.79v.112c3.131-.057,6.768-.17,8.057-.17H85.174V40ZM30.941,40V19.862c0-1.287.053-4.756.162-8h-.109c-.726,3.3-1.508,6.265-1.793,7.44L23.943,40H15.831l-5.2-20.645c-.273-1.173-1.06-4.195-1.788-7.494H8.724c.06,3.132.175,6.768.175,8.055V40H0V0H13.317l4.307,16.839c.5,2.014,1.564,6.379,2.3,9.791h.111c.666-3.411,1.677-7.777,2.181-9.791L26.578,0H40V40Z" fill="#fff" stroke="rgba(0,0,0,0)" stroke-width="1"/>
  </g>
</svg>
