<svg data-name="Logo / Home / Desktop / Dark" xmlns="http://www.w3.org/2000/svg" width="195.81" height="492.32">
  <g data-name="Group 9572">
    <path data-name="Path 205" d="m31.38 0 9.48 37.05c1.1 4.43 3.45 14.03 5.05 21.54h.24c1.48-7.51 3.7-17.11 4.8-21.54L60.55 0H90.1v88H70.15V43.7c0-2.84.12-10.47.37-17.6h-.25c-1.6 7.26-3.32 13.78-3.93 16.36L54.77 88H36.92L25.48 42.59c-.62-2.59-2.34-9.23-3.94-16.5h-.25c.13 6.9.37 14.9.37 17.73V88H2.1V0Z"/>
    <path data-name="Rectangle 672" d="M96.98 0h21.8v88h-21.8z"/>
    <path data-name="Path 206" d="M125.3 18.46V0h70.52v18.46h-24.37V88h-21.79V18.46Z"/>
    <path data-name="Path 207" d="M33.1 94.9h57v21.78H32.36c-8.74 0-14.4 4.3-14.4 15.14 0 10.21 6.03 14.89 14.77 14.89h57.35v21.78H33.11C12.68 168.5.49 156.43.49 131.82c0-24.87 11.82-36.93 32.62-36.93"/>
    <path data-name="Path 208" d="M7.63 183.26c4.92-6.9 12.43-10.95 22.15-11.07v21.9c-8.86.99-12.55 6.65-12.55 16.37a20.23 20.23 0 0 0 2.1 9.73 8.02 8.02 0 0 0 7.13 4.43c3.45 0 5.66-1.73 7.26-5.05s2.7-8 4.19-14.15c1.84-7.76 3.81-15.51 7.75-21.42s9.72-9.97 18.95-9.97c9.36 0 16.13 3.82 20.56 10.1s6.52 15 6.52 24.86c0 9.6-2.21 17.97-6.64 24.24-4.44 6.16-11.2 9.97-20.44 10.46V222.4c6.9-.86 10.59-5.9 10.59-14.15 0-7.76-3.32-12.68-8.25-12.68-3.07 0-5.04 1.72-6.52 5.05s-2.59 8.24-4.06 14.89c-1.97 8.24-4.06 15.87-8.25 21.66-4.06 5.78-10.09 9.47-19.45 9.47a25.45 25.45 0 0 1-21.16-10.33C2.58 229.79 0 220.8 0 210.59c0-10.83 2.58-20.56 7.63-27.33"/>
    <path data-name="Path 209" d="M90.1 317.91H72.11v-44.92H56.37v38.52H39.38V273H20.55v45.66H2.1V251.2h88Z"/>
    <path data-name="Path 210" d="M33.1 324.31h57v21.79H32.36c-8.74 0-14.4 4.3-14.4 15.14 0 10.21 6.03 14.9 14.77 14.9h57.35v21.78H33.11c-20.43 0-32.62-12.07-32.62-36.68 0-24.86 11.82-36.93 32.62-36.93"/>
    <path data-name="Path 211" d="m90.1 433.6-37.05 9.48a725.34 725.34 0 0 1-21.54 5.05v.25c7.5 1.47 17.1 3.69 21.54 4.8l37.04 9.6v29.54h-88v-19.94h44.3c2.84 0 10.47.12 17.6.37v-.25c-7.25-1.6-13.78-3.32-16.36-3.94L2.09 457v-17.84l45.42-11.45c2.58-.62 9.23-2.34 16.49-3.94v-.24c-6.9.12-14.9.36-17.72.36H2.09v-19.57h88Z"/>
  </g>
</svg>
